<svg width="311" height="311" viewBox="0 0 311 311" fill="none" xmlns="http://www.w3.org/2000/svg">
<g clip-path="url(#clip0_1_6)">
<circle cx="155.5" cy="154.5" r="128.5" fill="#029D2D"/>
<path d="M264.369 45.2126C250.111 30.8225 233.132 19.414 214.421 11.6519C195.71 3.88974 175.641 -0.0708356 155.383 0.000958862C70.4998 0.000958862 1.32175 69.1596 1.244 154.063C1.244 181.256 8.35813 207.71 21.7894 231.132L0 311.001L81.7152 289.581C104.321 301.883 129.647 308.331 155.383 308.338H155.461C240.364 308.338 309.523 239.179 309.601 154.199C309.62 133.946 305.632 113.889 297.866 95.184C290.099 76.4792 278.728 59.4959 264.369 45.2126ZM155.383 282.253C132.428 282.261 109.894 276.083 90.1511 264.37L85.4861 261.571L37.009 274.284L49.9544 226.992L46.9221 222.113C34.0896 201.71 27.3028 178.088 27.3486 153.985C27.3486 83.5045 84.8253 26.0083 155.461 26.0083C172.289 25.9781 188.956 29.2792 204.502 35.7211C220.048 42.163 234.165 51.6184 246.04 63.5421C257.956 75.4194 267.402 89.5383 273.834 105.085C280.266 120.631 283.556 137.297 283.515 154.121C283.438 224.854 225.961 282.253 155.383 282.253ZM225.65 186.348C221.821 184.424 202.908 175.113 199.351 173.792C195.813 172.528 193.228 171.867 190.701 175.716C188.116 179.545 180.73 188.273 178.514 190.78C176.298 193.365 174.004 193.657 170.156 191.752C166.327 189.808 153.906 185.765 139.211 172.606C127.743 162.401 120.065 149.767 117.772 145.938C115.556 142.089 117.558 140.029 119.482 138.104C121.173 136.394 123.311 133.595 125.236 131.379C127.18 129.163 127.821 127.53 129.084 124.965C130.348 122.36 129.745 120.144 128.793 118.22C127.821 116.296 120.143 97.3051 116.897 89.6467C113.787 82.0855 110.619 83.1351 108.247 83.038C106.032 82.9019 103.446 82.9019 100.861 82.9019C98.909 82.9504 96.9878 83.4019 95.2184 84.2281C93.4489 85.0543 91.8693 86.2374 90.5787 87.703C87.0411 91.5516 77.1474 100.862 77.1474 119.853C77.1474 138.843 90.9481 157.095 92.8918 159.68C94.7967 162.265 119.988 201.121 158.649 217.837C167.784 221.822 174.976 224.174 180.594 225.962C189.827 228.916 198.165 228.469 204.813 227.517C212.199 226.39 227.574 218.187 230.82 209.187C234.008 200.168 234.008 192.471 233.036 190.858C232.084 189.225 229.499 188.273 225.65 186.348Z" fill="white"/>
<path d="M36.5 274.5L50 226.5L66.5 245.5L86.5 261.5L61.5 268L36.5 274.5Z" fill="#029D2D"/>
</g>
<defs>
<clipPath id="clip0_1_6">
<rect width="311" height="311" fill="white"/>
</clipPath>
</defs>
</svg>
