<svg xmlns="http://www.w3.org/2000/svg" xmlns:xlink="http://www.w3.org/1999/xlink" width="1080" zoomAndPan="magnify" viewBox="0 0 810 809.999993" height="1080" preserveAspectRatio="xMidYMid meet" version="1.0"><defs><g/><clipPath id="50639f51eb"><path d="M 709.625 263.546875 L 740.375 263.546875 L 740.375 294.296875 L 709.625 294.296875 Z M 709.625 263.546875 " clip-rule="nonzero"/></clipPath></defs><rect x="-81" width="972" fill="#ffffff" y="-80.999999" height="971.999992" fill-opacity="1"/><rect x="-81" width="972" fill="#ffffff" y="-80.999999" height="971.999992" fill-opacity="1"/><g fill="#000000" fill-opacity="1"><g transform="translate(105.064916, 372.658142)"><g><path d="M 49.605469 -82.808594 L 49.605469 -84.976562 L 6.503906 -84.976562 L 6.503906 0.136719 L 49.605469 0.136719 L 49.605469 -2.03125 L 16.128906 -2.03125 L 16.128906 -43.234375 L 45.945312 -43.234375 L 45.945312 -45.402344 L 16.128906 -45.402344 L 16.128906 -82.808594 Z M 49.605469 -82.808594 "/></g></g></g><g fill="#000000" fill-opacity="1"><g transform="translate(169.848483, 372.658142)"><g><path d="M 77.929688 -84.976562 L 45.808594 -12.738281 L 14.910156 -84.976562 L 4.472656 -84.976562 L 41.609375 1.898438 L 42.421875 1.898438 L 81.046875 -84.976562 Z M 77.929688 -84.976562 "/></g></g></g><g fill="#000000" fill-opacity="1"><g transform="translate(264.855034, 372.658142)"><g><path d="M 7.859375 0.136719 L 17.484375 0.136719 L 17.484375 -84.976562 L 7.859375 -84.976562 Z M 7.859375 0.136719 "/></g></g></g><g fill="#000000" fill-opacity="1"><g transform="translate(300.228799, 372.658142)"><g><path d="M 41.609375 -84.976562 L 6.503906 -84.976562 L 6.503906 0.136719 L 35.238281 0.136719 C 39.304688 0.136719 84.707031 2.167969 84.707031 -43.777344 C 84.707031 -80.914062 57.328125 -84.976562 41.609375 -84.976562 Z M 34.96875 -2.03125 L 16.128906 -2.03125 L 16.128906 -82.675781 L 36.457031 -82.675781 C 51.910156 -82.675781 74.675781 -76.980469 74.675781 -43.777344 C 74.675781 -10.707031 53.535156 -2.03125 34.96875 -2.03125 Z M 34.96875 -2.03125 "/></g></g></g><g fill="#000000" fill-opacity="1"><g transform="translate(400.520986, 372.658142)"><g><path d="M 49.605469 -82.808594 L 49.605469 -84.976562 L 6.503906 -84.976562 L 6.503906 0.136719 L 49.605469 0.136719 L 49.605469 -2.03125 L 16.128906 -2.03125 L 16.128906 -43.234375 L 45.945312 -43.234375 L 45.945312 -45.402344 L 16.128906 -45.402344 L 16.128906 -82.808594 Z M 49.605469 -82.808594 "/></g></g></g><g fill="#000000" fill-opacity="1"><g transform="translate(465.304552, 372.658142)"><g><path d="M 75.625 -84.976562 L 73.457031 -84.976562 L 73.457031 -12.875 L 6.777344 -86.605469 L 6.503906 -86.605469 L 6.503906 0.136719 L 8.675781 0.136719 L 8.675781 -71.152344 L 75.21875 2.574219 L 75.625 2.574219 Z M 75.625 -84.976562 "/></g></g></g><g fill="#000000" fill-opacity="1"><g transform="translate(557.464989, 372.658142)"><g><path d="M 76.847656 -7.589844 C 76.847656 -7.589844 67.765625 0.269531 52.042969 0.269531 C 36.863281 0.269531 15.316406 -6.503906 15.316406 -42.148438 C 15.316406 -77.253906 38.898438 -84.4375 52.042969 -84.4375 C 68.035156 -84.4375 76.847656 -78.066406 76.847656 -78.066406 L 76.847656 -81.046875 C 76.847656 -81.046875 67.496094 -86.605469 52.042969 -86.605469 C 27.648438 -86.605469 5.421875 -73.59375 5.421875 -42.148438 C 5.421875 -5.964844 33.746094 2.574219 50.824219 2.574219 C 67.765625 2.574219 76.847656 -4.609375 76.847656 -4.609375 Z M 76.847656 -7.589844 "/></g></g></g><g fill="#000000" fill-opacity="1"><g transform="translate(649.489882, 372.658142)"><g><path d="M 49.605469 -82.808594 L 49.605469 -84.976562 L 6.503906 -84.976562 L 6.503906 0.136719 L 49.605469 0.136719 L 49.605469 -2.03125 L 16.128906 -2.03125 L 16.128906 -43.234375 L 45.945312 -43.234375 L 45.945312 -45.402344 L 16.128906 -45.402344 L 16.128906 -82.808594 Z M 49.605469 -82.808594 "/></g></g></g><g fill="#000000" fill-opacity="1"><g transform="translate(263.093686, 478.913826)"><g><path d="M 55.972656 -84.976562 L 55.972656 -45.402344 L 16.128906 -45.402344 L 16.128906 -84.976562 L 6.503906 -84.976562 L 6.503906 0.136719 L 16.128906 0.136719 L 16.128906 -43.234375 L 55.972656 -43.234375 L 55.972656 0.136719 L 65.734375 0.136719 L 65.734375 -84.976562 Z M 55.972656 -84.976562 "/></g></g></g><g fill="#000000" fill-opacity="1"><g transform="translate(345.224971, 478.913826)"><g><path d="M 70.882812 0.136719 L 81.320312 0.136719 L 44.046875 -86.605469 L 43.371094 -86.605469 L 4.742188 0.136719 L 7.726562 0.136719 L 23.039062 -34.019531 L 56.109375 -34.019531 Z M 23.988281 -36.324219 L 39.847656 -71.96875 L 55.160156 -36.324219 Z M 23.988281 -36.324219 "/></g></g></g><g fill="#000000" fill-opacity="1"><g transform="translate(440.773631, 478.913826)"><g><path d="M 7.859375 0.136719 L 17.484375 0.136719 L 17.484375 -84.976562 L 7.859375 -84.976562 Z M 7.859375 0.136719 "/></g></g></g><g fill="#000000" fill-opacity="1"><g transform="translate(476.147396, 478.913826)"><g><path d="M 66.140625 0.136719 L 34.289062 -39.980469 C 44.320312 -41.335938 59.5 -46.214844 59.5 -63.699219 C 59.5 -82.402344 39.167969 -84.976562 32.257812 -84.976562 C 25.617188 -84.976562 6.503906 -84.976562 6.503906 -84.976562 L 6.503906 0.136719 L 16.128906 0.136719 L 16.128906 -39.441406 L 22.363281 -39.441406 L 53.804688 0.136719 Z M 16.128906 -82.808594 L 27.105469 -82.808594 C 40.929688 -82.808594 49.199219 -77.117188 49.199219 -62.207031 C 49.199219 -47.03125 39.441406 -41.609375 23.582031 -41.609375 L 16.128906 -41.609375 Z M 16.128906 -82.808594 "/></g></g></g><path fill="#000000" d="M 727.246094 276.035156 C 727.246094 276.449219 727.152344 276.820312 726.96875 277.136719 C 726.789062 277.441406 726.449219 277.691406 725.964844 277.875 C 725.695312 277.976562 725.355469 278.054688 724.953125 278.105469 C 724.546875 278.15625 724.042969 278.183594 723.453125 278.183594 L 722.34375 278.183594 L 722.34375 274.164062 L 724.03125 274.164062 C 724.574219 274.164062 725.039062 274.191406 725.40625 274.242188 C 725.761719 274.292969 726.0625 274.375 726.296875 274.480469 C 726.640625 274.632812 726.890625 274.84375 727.027344 275.101562 C 727.175781 275.367188 727.246094 275.683594 727.246094 276.035156 Z M 727.003906 280.277344 C 728.078125 279.929688 728.894531 279.414062 729.433594 278.738281 C 730.007812 278.015625 730.300781 277.121094 730.300781 276.089844 C 730.300781 275.101562 730.058594 274.265625 729.582031 273.605469 C 729.105469 272.949219 728.425781 272.449219 727.554688 272.117188 C 727.101562 271.949219 726.554688 271.824219 725.921875 271.738281 C 725.296875 271.65625 724.617188 271.617188 723.890625 271.617188 L 719.363281 271.617188 L 719.363281 286.265625 L 722.34375 286.265625 L 722.34375 280.734375 L 723.863281 280.734375 L 727.75 286.265625 L 731.335938 286.265625 L 727.003906 280.277344 " fill-opacity="1" fill-rule="nonzero"/><g clip-path="url(#50639f51eb)"><path fill="#000000" d="M 725 266.054688 C 717.902344 266.054688 712.132812 271.828125 712.132812 278.921875 C 712.132812 286.019531 717.902344 291.792969 725 291.792969 C 732.09375 291.792969 737.867188 286.019531 737.867188 278.921875 C 737.867188 271.828125 732.09375 266.054688 725 266.054688 Z M 725 294.300781 C 722.925781 294.300781 720.910156 293.890625 719.015625 293.089844 C 717.183594 292.316406 715.539062 291.207031 714.128906 289.796875 C 712.714844 288.382812 711.609375 286.738281 710.832031 284.910156 C 710.03125 283.011719 709.625 281 709.625 278.921875 C 709.625 276.847656 710.03125 274.835938 710.832031 272.9375 C 711.609375 271.109375 712.714844 269.464844 714.128906 268.050781 C 715.539062 266.640625 717.183594 265.53125 719.015625 264.757812 C 720.910156 263.957031 722.925781 263.546875 725 263.546875 C 727.074219 263.546875 729.089844 263.957031 730.984375 264.757812 C 732.816406 265.53125 734.460938 266.640625 735.871094 268.050781 C 737.285156 269.464844 738.390625 271.109375 739.167969 272.9375 C 739.96875 274.835938 740.375 276.847656 740.375 278.921875 C 740.375 281 739.96875 283.011719 739.167969 284.910156 C 738.390625 286.738281 737.285156 288.382812 735.871094 289.796875 C 734.460938 291.207031 732.816406 292.316406 730.984375 293.089844 C 729.089844 293.890625 727.074219 294.300781 725 294.300781 " fill-opacity="1" fill-rule="nonzero"/></g><g fill="#000000" fill-opacity="1"><g transform="translate(187.284515, 550.13572)"><g><path d="M 9.015625 0.21875 C 7.617188 0.21875 6.367188 -0.0234375 5.265625 -0.515625 C 4.171875 -1.015625 3.3125 -1.703125 2.6875 -2.578125 C 2.0625 -3.460938 1.738281 -4.476562 1.71875 -5.625 L 4.65625 -5.625 C 4.757812 -4.632812 5.164062 -3.800781 5.875 -3.125 C 6.59375 -2.457031 7.640625 -2.125 9.015625 -2.125 C 10.328125 -2.125 11.359375 -2.445312 12.109375 -3.09375 C 12.867188 -3.75 13.25 -4.59375 13.25 -5.625 C 13.25 -6.4375 13.023438 -7.09375 12.578125 -7.59375 C 12.140625 -8.09375 11.585938 -8.472656 10.921875 -8.734375 C 10.253906 -9.003906 9.359375 -9.289062 8.234375 -9.59375 C 6.835938 -9.957031 5.71875 -10.316406 4.875 -10.671875 C 4.039062 -11.035156 3.328125 -11.601562 2.734375 -12.375 C 2.140625 -13.15625 1.84375 -14.203125 1.84375 -15.515625 C 1.84375 -16.671875 2.132812 -17.691406 2.71875 -18.578125 C 3.300781 -19.460938 4.125 -20.144531 5.1875 -20.625 C 6.25 -21.113281 7.460938 -21.359375 8.828125 -21.359375 C 10.804688 -21.359375 12.425781 -20.863281 13.6875 -19.875 C 14.945312 -18.882812 15.660156 -17.570312 15.828125 -15.9375 L 12.796875 -15.9375 C 12.691406 -16.75 12.265625 -17.460938 11.515625 -18.078125 C 10.773438 -18.691406 9.789062 -19 8.5625 -19 C 7.414062 -19 6.476562 -18.703125 5.75 -18.109375 C 5.019531 -17.515625 4.65625 -16.679688 4.65625 -15.609375 C 4.65625 -14.835938 4.867188 -14.207031 5.296875 -13.71875 C 5.734375 -13.238281 6.269531 -12.875 6.90625 -12.625 C 7.539062 -12.375 8.4375 -12.085938 9.59375 -11.765625 C 10.976562 -11.378906 12.09375 -11 12.9375 -10.625 C 13.789062 -10.257812 14.519531 -9.6875 15.125 -8.90625 C 15.726562 -8.132812 16.03125 -7.082031 16.03125 -5.75 C 16.03125 -4.71875 15.757812 -3.75 15.21875 -2.84375 C 14.675781 -1.9375 13.867188 -1.195312 12.796875 -0.625 C 11.722656 -0.0625 10.460938 0.21875 9.015625 0.21875 Z M 9.015625 0.21875 "/></g></g></g><g fill="#000000" fill-opacity="1"><g transform="translate(218.438899, 550.13572)"><g><path d="M 14.796875 -4.6875 L 5.59375 -4.6875 L 3.90625 0 L 1 0 L 8.625 -20.96875 L 11.796875 -20.96875 L 19.390625 0 L 16.484375 0 Z M 14 -6.921875 L 10.1875 -17.578125 L 6.375 -6.921875 Z M 14 -6.921875 "/></g></g></g><g fill="#000000" fill-opacity="1"><g transform="translate(252.224692, 550.13572)"><g><path d="M 5.078125 -2.234375 L 12.46875 -2.234375 L 12.46875 0 L 2.328125 0 L 2.328125 -21.078125 L 5.078125 -21.078125 Z M 5.078125 -2.234375 "/></g></g></g><g fill="#000000" fill-opacity="1"><g transform="translate(278.690944, 550.13572)"><g><path d="M 14.796875 -4.6875 L 5.59375 -4.6875 L 3.90625 0 L 1 0 L 8.625 -20.96875 L 11.796875 -20.96875 L 19.390625 0 L 16.484375 0 Z M 14 -6.921875 L 10.1875 -17.578125 L 6.375 -6.921875 Z M 5.75 -22.75 C 5.882812 -23.78125 6.21875 -24.566406 6.75 -25.109375 C 7.289062 -25.648438 7.96875 -25.921875 8.78125 -25.921875 C 9.15625 -25.921875 9.476562 -25.851562 9.75 -25.71875 C 10.03125 -25.59375 10.359375 -25.410156 10.734375 -25.171875 C 11.015625 -24.972656 11.265625 -24.816406 11.484375 -24.703125 C 11.710938 -24.585938 11.957031 -24.53125 12.21875 -24.53125 C 12.5625 -24.53125 12.851562 -24.640625 13.09375 -24.859375 C 13.34375 -25.085938 13.492188 -25.414062 13.546875 -25.84375 L 15.125 -25.84375 C 15 -24.832031 14.664062 -24.050781 14.125 -23.5 C 13.582031 -22.957031 12.90625 -22.6875 12.09375 -22.6875 C 11.71875 -22.6875 11.382812 -22.75 11.09375 -22.875 C 10.800781 -23.007812 10.472656 -23.210938 10.109375 -23.484375 C 9.785156 -23.679688 9.523438 -23.828125 9.328125 -23.921875 C 9.140625 -24.023438 8.914062 -24.078125 8.65625 -24.078125 C 8.3125 -24.078125 8.019531 -23.96875 7.78125 -23.75 C 7.550781 -23.53125 7.410156 -23.195312 7.359375 -22.75 Z M 5.75 -22.75 "/></g></g></g><g fill="#000000" fill-opacity="1"><g transform="translate(312.476739, 550.13572)"><g><path d="M 11.890625 0.21875 C 9.929688 0.21875 8.144531 -0.238281 6.53125 -1.15625 C 4.914062 -2.082031 3.640625 -3.363281 2.703125 -5 C 1.765625 -6.644531 1.296875 -8.5 1.296875 -10.5625 C 1.296875 -12.613281 1.765625 -14.460938 2.703125 -16.109375 C 3.640625 -17.753906 4.914062 -19.035156 6.53125 -19.953125 C 8.144531 -20.867188 9.929688 -21.328125 11.890625 -21.328125 C 13.867188 -21.328125 15.660156 -20.867188 17.265625 -19.953125 C 18.878906 -19.035156 20.148438 -17.757812 21.078125 -16.125 C 22.003906 -14.488281 22.46875 -12.632812 22.46875 -10.5625 C 22.46875 -8.476562 22.003906 -6.617188 21.078125 -4.984375 C 20.148438 -3.359375 18.878906 -2.082031 17.265625 -1.15625 C 15.660156 -0.238281 13.867188 0.21875 11.890625 0.21875 Z M 11.890625 -2.171875 C 13.359375 -2.171875 14.679688 -2.515625 15.859375 -3.203125 C 17.046875 -3.890625 17.972656 -4.867188 18.640625 -6.140625 C 19.316406 -7.410156 19.65625 -8.882812 19.65625 -10.5625 C 19.65625 -12.25 19.316406 -13.722656 18.640625 -14.984375 C 17.972656 -16.242188 17.050781 -17.21875 15.875 -17.90625 C 14.707031 -18.59375 13.378906 -18.9375 11.890625 -18.9375 C 10.398438 -18.9375 9.066406 -18.59375 7.890625 -17.90625 C 6.722656 -17.21875 5.800781 -16.242188 5.125 -14.984375 C 4.445312 -13.722656 4.109375 -12.25 4.109375 -10.5625 C 4.109375 -8.882812 4.445312 -7.410156 5.125 -6.140625 C 5.800781 -4.867188 6.726562 -3.890625 7.90625 -3.203125 C 9.09375 -2.515625 10.421875 -2.171875 11.890625 -2.171875 Z M 11.890625 -2.171875 "/></g></g></g><g fill="#000000" fill-opacity="1"><g transform="translate(349.650088, 550.13572)"><g/></g></g><g fill="#000000" fill-opacity="1"><g transform="translate(371.125749, 550.13572)"><g><path d="M 8.890625 -21.078125 C 11.191406 -21.078125 13.179688 -20.648438 14.859375 -19.796875 C 16.546875 -18.941406 17.835938 -17.71875 18.734375 -16.125 C 19.640625 -14.53125 20.09375 -12.65625 20.09375 -10.5 C 20.09375 -8.34375 19.640625 -6.472656 18.734375 -4.890625 C 17.835938 -3.304688 16.546875 -2.09375 14.859375 -1.25 C 13.179688 -0.414062 11.191406 0 8.890625 0 L 2.328125 0 L 2.328125 -21.078125 Z M 8.890625 -2.265625 C 11.617188 -2.265625 13.695312 -2.984375 15.125 -4.421875 C 16.550781 -5.867188 17.265625 -7.894531 17.265625 -10.5 C 17.265625 -13.113281 16.546875 -15.15625 15.109375 -16.625 C 13.671875 -18.101562 11.597656 -18.84375 8.890625 -18.84375 L 5.078125 -18.84375 L 5.078125 -2.265625 Z M 8.890625 -2.265625 "/></g></g></g><g fill="#000000" fill-opacity="1"><g transform="translate(405.909664, 550.13572)"><g><path d="M 5.078125 -18.84375 L 5.078125 -11.796875 L 12.765625 -11.796875 L 12.765625 -9.53125 L 5.078125 -9.53125 L 5.078125 -2.265625 L 13.671875 -2.265625 L 13.671875 0 L 2.328125 0 L 2.328125 -21.109375 L 13.671875 -21.109375 L 13.671875 -18.84375 Z M 5.078125 -18.84375 "/></g></g></g><g fill="#000000" fill-opacity="1"><g transform="translate(434.825838, 550.13572)"><g/></g></g><g fill="#000000" fill-opacity="1"><g transform="translate(456.301499, 550.13572)"><g><path d="M 12.890625 -10.859375 C 13.648438 -10.734375 14.347656 -10.421875 14.984375 -9.921875 C 15.617188 -9.421875 16.125 -8.796875 16.5 -8.046875 C 16.875 -7.296875 17.0625 -6.5 17.0625 -5.65625 C 17.0625 -4.582031 16.785156 -3.617188 16.234375 -2.765625 C 15.691406 -1.910156 14.898438 -1.234375 13.859375 -0.734375 C 12.828125 -0.242188 11.601562 0 10.1875 0 L 2.328125 0 L 2.328125 -21.078125 L 9.890625 -21.078125 C 11.328125 -21.078125 12.546875 -20.835938 13.546875 -20.359375 C 14.554688 -19.890625 15.3125 -19.253906 15.8125 -18.453125 C 16.320312 -17.648438 16.578125 -16.742188 16.578125 -15.734375 C 16.578125 -14.484375 16.238281 -13.445312 15.5625 -12.625 C 14.882812 -11.8125 13.992188 -11.222656 12.890625 -10.859375 Z M 5.078125 -11.984375 L 9.703125 -11.984375 C 10.992188 -11.984375 11.992188 -12.285156 12.703125 -12.890625 C 13.410156 -13.492188 13.765625 -14.328125 13.765625 -15.390625 C 13.765625 -16.460938 13.410156 -17.300781 12.703125 -17.90625 C 11.992188 -18.507812 10.976562 -18.8125 9.65625 -18.8125 L 5.078125 -18.8125 Z M 9.953125 -2.265625 C 11.328125 -2.265625 12.394531 -2.585938 13.15625 -3.234375 C 13.925781 -3.878906 14.3125 -4.773438 14.3125 -5.921875 C 14.3125 -7.097656 13.90625 -8.019531 13.09375 -8.6875 C 12.289062 -9.363281 11.210938 -9.703125 9.859375 -9.703125 L 5.078125 -9.703125 L 5.078125 -2.265625 Z M 9.953125 -2.265625 "/></g></g></g><g fill="#000000" fill-opacity="1"><g transform="translate(488.242278, 550.13572)"><g><path d="M 5.078125 -18.84375 L 5.078125 -11.796875 L 12.765625 -11.796875 L 12.765625 -9.53125 L 5.078125 -9.53125 L 5.078125 -2.265625 L 13.671875 -2.265625 L 13.671875 0 L 2.328125 0 L 2.328125 -21.109375 L 13.671875 -21.109375 L 13.671875 -18.84375 Z M 5.078125 -18.84375 "/></g></g></g><g fill="#000000" fill-opacity="1"><g transform="translate(517.158453, 550.13572)"><g><path d="M 5.078125 -2.234375 L 12.46875 -2.234375 L 12.46875 0 L 2.328125 0 L 2.328125 -21.078125 L 5.078125 -21.078125 Z M 5.078125 -2.234375 "/></g></g></g><g fill="#000000" fill-opacity="1"><g transform="translate(543.624699, 550.13572)"><g><path d="M 5.078125 -18.84375 L 5.078125 -11.796875 L 12.765625 -11.796875 L 12.765625 -9.53125 L 5.078125 -9.53125 L 5.078125 -2.265625 L 13.671875 -2.265625 L 13.671875 0 L 2.328125 0 L 2.328125 -21.109375 L 13.671875 -21.109375 L 13.671875 -18.84375 Z M 5.078125 -18.84375 "/></g></g></g><g fill="#000000" fill-opacity="1"><g transform="translate(572.540873, 550.13572)"><g><path d="M 4.65625 -2.390625 L 14.9375 -2.390625 L 14.9375 0 L 1.390625 0 L 1.390625 -2.171875 L 11.609375 -18.6875 L 1.515625 -18.6875 L 1.515625 -21.078125 L 14.890625 -21.078125 L 14.890625 -18.90625 Z M 4.65625 -2.390625 "/></g></g></g><g fill="#000000" fill-opacity="1"><g transform="translate(602.303933, 550.13572)"><g><path d="M 14.796875 -4.6875 L 5.59375 -4.6875 L 3.90625 0 L 1 0 L 8.625 -20.96875 L 11.796875 -20.96875 L 19.390625 0 L 16.484375 0 Z M 14 -6.921875 L 10.1875 -17.578125 L 6.375 -6.921875 Z M 14 -6.921875 "/></g></g></g></svg>